<?xml version="1.0" encoding="UTF-8"?><svg id="Layer_1" xmlns="http://www.w3.org/2000/svg" viewBox="0 0 1920 1080"><defs><style>.cls-1{fill:#fff;}.cls-2{fill:#498bff;}.cls-3{fill:#ff395a;}.cls-4{fill:#4adf40;}</style></defs><path class="cls-3" d="M718.67,435.63h-28.8l43.92-127.32h34.69l43.84,127.32h-28.71l-31.96-98.27h-1.03l-31.96,98.27Zm-1.71-50.07h68.1v21.02h-68.1v-21.02Z"/><path class="cls-4" d="M820.05,435.63v-127.32h50.93c9.34,0,17.15,1.4,23.41,4.19,6.27,2.79,10.98,6.64,14.14,11.54,3.16,4.9,4.74,10.54,4.74,16.92,0,4.96-1.01,9.31-3.03,13.07-2.02,3.76-4.76,6.84-8.2,9.23-3.45,2.39-7.39,4.07-11.83,5.04v1.28c4.84,.23,9.4,1.6,13.67,4.1,4.27,2.51,7.73,6.02,10.38,10.55,2.65,4.53,3.97,9.93,3.97,16.19,0,6.72-1.67,12.75-5,18.07-3.33,5.33-8.25,9.51-14.74,12.56-6.49,3.05-14.53,4.57-24.1,4.57h-54.35Zm26.83-74h20c3.7,0,6.99-.65,9.87-1.97,2.88-1.31,5.14-3.17,6.79-5.6,1.65-2.42,2.48-5.31,2.48-8.67,0-4.56-1.61-8.25-4.83-11.07-3.22-2.82-7.82-4.23-13.8-4.23h-20.51v31.53Zm0,52.04h22.05c7.46,0,12.92-1.45,16.36-4.36,3.45-2.91,5.17-6.75,5.17-11.54,0-3.53-.84-6.65-2.52-9.36-1.68-2.71-4.09-4.83-7.22-6.37-3.13-1.54-6.87-2.31-11.19-2.31h-22.64v33.92Z"/><path class="cls-2" d="M985.19,437.34c-11.28,0-21.39-2.56-30.33-7.69-8.94-5.13-16.01-12.56-21.19-22.3-5.18-9.74-7.78-21.5-7.78-35.29s2.61-25.73,7.82-35.5c5.21-9.77,12.3-17.2,21.28-22.3,8.97-5.1,19.04-7.65,30.21-7.65,7.4,0,14.27,1.04,20.59,3.12,6.32,2.08,11.92,5.1,16.79,9.06,4.87,3.96,8.84,8.8,11.92,14.53,3.08,5.72,5.04,12.26,5.9,19.61h-27.17c-.51-3.47-1.53-6.61-3.03-9.4-1.51-2.79-3.47-5.16-5.9-7.09-2.42-1.94-5.18-3.43-8.29-4.49-3.11-1.05-6.51-1.58-10.21-1.58-6.49,0-12.21,1.64-17.13,4.91-4.93,3.28-8.75,8-11.45,14.18-2.71,6.18-4.06,13.71-4.06,22.6s1.37,16.68,4.1,22.86c2.73,6.18,6.55,10.84,11.45,13.97,4.9,3.13,10.57,4.7,17,4.7,3.59,0,6.92-.48,10-1.45s5.81-2.36,8.2-4.19c2.39-1.82,4.4-4.06,6.02-6.71,1.62-2.65,2.72-5.68,3.29-9.1h27.17c-.68,5.87-2.41,11.51-5.17,16.92-2.76,5.41-6.51,10.24-11.24,14.48-4.73,4.24-10.34,7.6-16.83,10.08-6.49,2.48-13.81,3.72-21.96,3.72Z"/><path class="cls-1" d="M754.64,587.34c-11.96,0-22.46-2.63-31.49-7.9-9.03-5.27-16.06-12.79-21.11-22.56-5.04-9.77-7.56-21.35-7.56-34.73s2.63-25.56,7.9-35.33c5.27-9.77,12.4-17.25,21.41-22.43,9-5.18,19.11-7.78,30.33-7.78,7.18,0,13.87,1.04,20.08,3.12,6.21,2.08,11.73,5.04,16.58,8.89,4.84,3.84,8.79,8.37,11.83,13.59,3.05,5.21,5,10.98,5.85,17.3h-27.26c-.85-3.02-2.07-5.71-3.63-8.08-1.57-2.36-3.49-4.36-5.77-5.98-2.28-1.62-4.86-2.88-7.73-3.76-2.88-.88-6.05-1.32-9.53-1.32-6.49,0-12.21,1.61-17.13,4.83-4.93,3.22-8.77,7.93-11.54,14.14-2.76,6.21-4.14,13.73-4.14,22.56s1.37,16.35,4.1,22.56c2.73,6.21,6.56,10.95,11.49,14.23,4.93,3.28,10.75,4.91,17.47,4.91,6.09,0,11.29-1.1,15.59-3.29,4.3-2.19,7.61-5.28,9.91-9.27,2.31-3.99,3.46-8.69,3.46-14.1l5.47,.85h-32.73v-20.25h53.24v16.06c0,11.17-2.37,20.76-7.09,28.8-4.73,8.03-11.24,14.2-19.52,18.5-8.29,4.3-17.79,6.45-28.5,6.45Z"/><path class="cls-1" d="M849.19,587.43c-6.04,0-11.46-1.07-16.28-3.21-4.81-2.14-8.59-5.31-11.32-9.53-2.73-4.21-4.1-9.46-4.1-15.72,0-5.35,.97-9.81,2.91-13.37,1.94-3.56,4.58-6.45,7.95-8.67,3.36-2.22,7.18-3.9,11.45-5.04,4.27-1.14,8.8-1.94,13.59-2.39,5.53-.51,9.97-1.03,13.33-1.54,3.36-.51,5.82-1.3,7.39-2.35,1.57-1.05,2.35-2.58,2.35-4.57v-.43c0-3.93-1.24-6.98-3.72-9.14-2.48-2.16-5.97-3.25-10.47-3.25-4.73,0-8.5,1.04-11.32,3.12-2.82,2.08-4.69,4.71-5.6,7.9l-24.52-1.96c1.25-5.81,3.7-10.84,7.35-15.08,3.64-4.24,8.36-7.52,14.14-9.83,5.78-2.31,12.49-3.46,20.12-3.46,5.3,0,10.37,.63,15.21,1.88,4.84,1.25,9.16,3.18,12.95,5.77,3.79,2.59,6.79,5.94,9.02,10.04s3.33,8.97,3.33,14.61v64.43h-25.21v-13.33h-.68c-1.54,3.02-3.59,5.65-6.15,7.9-2.56,2.25-5.64,4.02-9.23,5.3-3.59,1.28-7.75,1.92-12.48,1.92Zm7.6-18.29c3.87,0,7.31-.78,10.3-2.35,2.99-1.57,5.33-3.67,7.01-6.32,1.68-2.65,2.52-5.62,2.52-8.93v-10.17c-.8,.51-1.92,1-3.38,1.45-1.45,.46-3.06,.86-4.83,1.2-1.77,.34-3.53,.64-5.3,.9-1.77,.26-3.36,.5-4.79,.73-3.13,.46-5.87,1.18-8.2,2.18-2.34,1-4.14,2.34-5.43,4.02-1.28,1.68-1.92,3.77-1.92,6.28,0,3.59,1.31,6.32,3.93,8.2,2.62,1.88,5.98,2.82,10.08,2.82Z"/><path class="cls-1" d="M916.66,585.63v-95.53h25.04v17h1.2c1.99-5.64,5.33-10.08,10-13.33,4.67-3.25,10.22-4.87,16.66-4.87s12.12,1.64,16.71,4.91c4.58,3.28,7.65,7.71,9.19,13.29h1.03c1.94-5.53,5.47-9.94,10.6-13.25,5.13-3.3,11.16-4.96,18.12-4.96,8.89,0,16.13,2.82,21.75,8.46,5.61,5.64,8.42,13.64,8.42,24.01v64.26h-26.49v-58.96c0-5.35-1.41-9.34-4.23-11.96-2.82-2.62-6.34-3.93-10.55-3.93-4.79,0-8.53,1.52-11.24,4.57-2.71,3.05-4.06,7.05-4.06,12.01v58.28h-25.63v-59.64c0-4.61-1.34-8.3-4.02-11.07-2.68-2.76-6.18-4.14-10.51-4.14-2.96,0-5.61,.74-7.95,2.22-2.34,1.48-4.19,3.52-5.55,6.11-1.37,2.59-2.05,5.68-2.05,9.27v57.25h-26.4Z"/><path class="cls-1" d="M1112.63,587.51c-9.8,0-18.26-1.99-25.38-5.98-7.12-3.99-12.58-9.67-16.36-17.05-3.79-7.38-5.68-16.11-5.68-26.19s1.89-18.4,5.68-25.81c3.79-7.4,9.14-13.19,16.06-17.35,6.92-4.16,15.05-6.24,24.4-6.24,6.32,0,12.22,1.01,17.69,3.03,5.47,2.02,10.25,5.04,14.36,9.06,4.1,4.02,7.29,9.06,9.57,15.12,2.28,6.07,3.42,13.17,3.42,21.32v7.18h-80.66v-16.32h67.85l-12.3,4.27c0-4.84-.74-9.06-2.22-12.65-1.48-3.59-3.69-6.37-6.62-8.33-2.93-1.96-6.57-2.95-10.9-2.95s-7.99,1-10.98,2.99c-2.99,2-5.29,4.7-6.88,8.12-1.6,3.42-2.39,7.35-2.39,11.79v11.54c0,5.18,.91,9.61,2.73,13.29,1.82,3.67,4.37,6.49,7.65,8.46,3.28,1.96,7.05,2.95,11.32,2.95,2.96,0,5.64-.43,8.03-1.28s4.46-2.11,6.2-3.76c1.74-1.65,3.03-3.64,3.89-5.98l24.44,1.62c-1.2,5.87-3.69,10.98-7.48,15.34-3.79,4.36-8.67,7.75-14.66,10.17-5.98,2.42-12.9,3.63-20.76,3.63Z"/><path class="cls-1" d="M696.79,735.63v-127.32h85.79v22.22h-58.96v29.91h54.52v21.79h-54.52v31.19h59.13v22.22h-85.96Z"/><path class="cls-1" d="M822.45,680.43v55.2h-26.4v-95.53h25.98v17h.94c2.16-5.64,5.61-10.08,10.34-13.33,4.73-3.25,10.65-4.87,17.77-4.87,6.61,0,12.38,1.45,17.3,4.36,4.93,2.91,8.76,7.04,11.49,12.39,2.73,5.36,4.1,11.76,4.1,19.23v60.75h-26.4v-56.05c0-5.81-1.51-10.38-4.53-13.71-3.02-3.33-7.18-5-12.48-5-3.53,0-6.67,.78-9.4,2.35-2.73,1.57-4.87,3.8-6.41,6.71-1.54,2.91-2.31,6.41-2.31,10.51Z"/><path class="cls-1" d="M940.5,773.4c-12.88,0-22.96-2.55-30.25-7.65-7.29-5.1-11.74-11.44-13.33-19.01l24.44-3.25c.74,1.94,1.91,3.73,3.5,5.38,1.59,1.65,3.73,2.98,6.41,3.97,2.68,1,5.95,1.5,9.83,1.5,5.75,0,10.51-1.38,14.27-4.14,3.76-2.76,5.64-7.42,5.64-13.97v-17.52h-1.11c-1.14,2.62-2.88,5.13-5.21,7.52-2.34,2.39-5.33,4.33-8.97,5.81-3.65,1.48-8,2.22-13.07,2.22-7.18,0-13.69-1.67-19.52-5-5.84-3.33-10.51-8.44-14.01-15.34-3.5-6.89-5.26-15.61-5.26-26.15s1.78-19.94,5.34-27.17c3.56-7.23,8.27-12.66,14.14-16.28,5.87-3.62,12.3-5.43,19.31-5.43,5.35,0,9.84,.9,13.46,2.69,3.62,1.79,6.56,4.03,8.84,6.71,2.28,2.68,3.99,5.33,5.13,7.95h1.03v-16.15h26.06v96.56c0,8.09-1.99,14.87-5.98,20.34-3.99,5.47-9.48,9.57-16.49,12.3s-15.07,4.1-24.18,4.1Zm.51-59.05c6.38,0,11.32-2.36,14.83-7.09,3.5-4.73,5.25-11.28,5.25-19.65,0-5.58-.78-10.44-2.35-14.57-1.57-4.13-3.83-7.35-6.79-9.66-2.96-2.31-6.61-3.46-10.94-3.46s-7.99,1.18-10.98,3.55c-2.99,2.37-5.26,5.63-6.79,9.78-1.54,4.16-2.31,8.94-2.31,14.36s.77,10.21,2.31,14.23c1.54,4.02,3.8,7.11,6.79,9.27,2.99,2.17,6.65,3.25,10.98,3.25Z"/><path class="cls-1" d="M1014.11,627.88c-3.93,0-7.29-1.31-10.08-3.93-2.79-2.62-4.19-5.78-4.19-9.49s1.39-6.85,4.19-9.44c2.79-2.59,6.15-3.89,10.08-3.89s7.38,1.3,10.17,3.89c2.79,2.59,4.19,5.74,4.19,9.44s-1.4,6.87-4.19,9.49c-2.79,2.62-6.18,3.93-10.17,3.93Zm-13.16,107.75v-95.53h26.4v95.53h-26.4Z"/><path class="cls-1" d="M1067.56,680.43v55.2h-26.4v-95.53h25.98v17h.94c2.16-5.64,5.61-10.08,10.34-13.33,4.73-3.25,10.65-4.87,17.77-4.87,6.61,0,12.38,1.45,17.3,4.36,4.93,2.91,8.76,7.04,11.49,12.39,2.73,5.36,4.1,11.76,4.1,19.23v60.75h-26.4v-56.05c0-5.81-1.51-10.38-4.53-13.71-3.02-3.33-7.18-5-12.48-5-3.53,0-6.67,.78-9.4,2.35-2.73,1.57-4.87,3.8-6.41,6.71-1.54,2.91-2.31,6.41-2.31,10.51Z"/><path class="cls-1" d="M1186.38,737.51c-9.8,0-18.26-1.99-25.38-5.98-7.12-3.99-12.58-9.67-16.36-17.05-3.79-7.38-5.68-16.11-5.68-26.19s1.89-18.4,5.68-25.81c3.79-7.4,9.14-13.19,16.06-17.35,6.92-4.16,15.05-6.24,24.4-6.24,6.32,0,12.22,1.01,17.69,3.03,5.47,2.02,10.25,5.04,14.36,9.06,4.1,4.02,7.29,9.06,9.57,15.12,2.28,6.07,3.42,13.17,3.42,21.32v7.18h-80.66v-16.32h67.85l-12.3,4.27c0-4.84-.74-9.06-2.22-12.65-1.48-3.59-3.69-6.37-6.62-8.33-2.93-1.96-6.57-2.95-10.9-2.95s-7.99,1-10.98,2.99c-2.99,2-5.29,4.7-6.88,8.12-1.6,3.42-2.39,7.35-2.39,11.79v11.54c0,5.18,.91,9.61,2.73,13.29,1.82,3.67,4.37,6.49,7.65,8.46,3.28,1.96,7.05,2.95,11.32,2.95,2.96,0,5.64-.43,8.03-1.28s4.46-2.11,6.2-3.76c1.74-1.65,3.03-3.64,3.89-5.98l24.44,1.62c-1.2,5.87-3.69,10.98-7.48,15.34-3.79,4.36-8.67,7.75-14.66,10.17-5.98,2.42-12.9,3.63-20.76,3.63Z"/></svg>